# AST/ASF file generated using VICON BodyLanguage
# -----------------------------------------------
:version 1.10
:name VICON
:units
  mass 1.0
  length 0.45
  angle deg
:documentation
   .ast/.asf automatically generated from VICON data using
   VICON BodyBuilder and BodyLanguage model FoxedUp or BRILLIANT.MOD
:root
   order TX TY TZ RX RY RZ
   axis XYZ
   position 0 0 0  
   orientation 0 0 0 
:bonedata
  begin
     id 1 
     name lhipjoint
     direction 0.576517 -0.752066 0.319413 
     length 2.45433 
     axis 0 0 0  XYZ
  end
  begin
     id 2 
     name lfemur
     direction 0.34202 -0.939693 0  
     length 7.54459  
     axis 0 0 20  XYZ
    dof rx ry rz
    limits (-160.0 20.0)
           (-70.0 70.0)
           (-60.0 70.0)
  end
  begin
     id 3 
     name ltibia
     direction 0.34202 -0.939693 0   
     length 7.73986   
     axis 0 0 20   XYZ
    dof rx
    limits (-10.0 170.0)
  end
  begin
     id 4 
     name lfoot
     direction 0.090693 -0.249177 0.964202   
     length 2.28437   
     axis -90 7.62852e-016 20   XYZ
    dof rx rz
    limits (-45.0 90.0)
           (-70.0 20.0)
  end
  begin
     id 5 
     name ltoes
     direction 1.5356e-011 -4.21928e-011 1   
     length 1.14243   
     axis -90 7.62852e-016 20   XYZ
    dof rx
    limits (-90.0 20.0)
  end
  begin
     id 6 
     name rhipjoint
     direction -0.573937 -0.753736 0.320122   
     length 2.44889  
     axis 0 0 0  XYZ 
  end
  begin
     id 7 
     name rfemur
     direction -0.34202 -0.939693 0   
     length 7.50166   
     axis 0 0 -20   XYZ
    dof rx ry rz
    limits (-160.0 20.0)
           (-70.0 70.0)
           (-70.0 60.0)
  end
  begin
     id 8 
     name rtibia
     direction -0.34202 -0.939693 0   
     length 7.54266   
     axis 0 0 -20   XYZ
    dof rx
    limits (-10.0 170.0)
 end
 begin
     id 9 
     name rfoot
     direction -0.114017 -0.31326 0.942798   
     length 2.34212  
     axis -90 -7.62852e-016 -20   XYZ
    dof rx rz
    limits (-45.0 90.0)
           (-20.0 70.0)
  end
  begin
     id 10 
     name rtoes
     direction -1.53557e-011 -4.21867e-011 1   
     length 1.16246   
     axis -90 -7.62852e-016 -20   XYZ
    dof rx
    limits (-90.0 20.0)
  end
  begin
     id 11 
     name lowerback
     direction -0.0228371 0.999155 -0.034167   
     length 2.0537   
     axis 0 0 0   XYZ
    dof rx ry rz
    limits (-20.0 45.0)
           (-30.0 30.0)
           (-30.0 30.0)
  end
  begin
     id 12 
     name upperback
     direction 0.0198981 0.999794 0.00389455   
     length 2.05302   
     axis 0 0 0   XYZ
    dof rx ry rz
    limits (-20.0 45.0)
           (-30.0 30.0)
           (-30.0 30.0)
  end
  begin
     id 13 
     name thorax
     direction 0.0304566 0.99935 0.0192987   
     length 2.05315   
     axis 0 0 0   XYZ
    dof rx ry rz
    limits (-20.0 45.0)
           (-30.0 30.0)
           (-30.0 30.0)
  end
  begin
     id 14 
     name lowerneck
     direction -0.0196762 0.99417 0.106017   
     length 1.82056   
     axis 0 0 0   XYZ
    dof rx ry rz
    limits (-20.0 45.0)
           (-30.0 30.0)
           (-30.0 30.0)
  end
  begin
     id 15 
     name upperneck
     direction 0.00517787 0.9802 -0.197944   
     length 1.83835   
     axis 0 0 0   XYZ
    dof rx ry rz
    limits (-20.0 45.0)
           (-30.0 30.0)
           (-30.0 30.0)
  end
  begin
     id 16
     name head
     direction 0.00211419 0.996945 -0.078081  
     length 1.85629  
     axis 0 0 0   XYZ
    dof rx ry rz
    limits (-20.0 45.0)
           (-30.0 30.0)
           (-30.0 30.0)
  end
  begin
     id 17 
     name lclavicle
     direction 0.930001 0.365811 -0.0357824  
     length 3.81961  
     axis 0 0 0   XYZ
    dof ry rz
    limits (-20.0 10.0)
           (0.0 20.0)
  end
  begin
     id 18 
     name lhumerus
     direction 1 -4.48968e-011 -3.06644e-027   
     length 5.14507   
     axis 180 -30 -90   XYZ
    dof rx ry rz
    limits (-60.0 90.0)
           (-90.0 90.0)
           (-90.0 90.0)
  end
  begin
     id 19
     name lradius
     direction 1 -4.48965e-011 9.06925e-028   
     length 3.50646   
     axis 180 -30 -90   XYZ
    dof rx
    limits (-10.0 170.0)
  end
  begin
     id 20
     name lwrist
     direction 1 -4.48957e-011 1.03922e-027   
     length 1.75323   
     axis -2.56395e-016 90 90   XYZ
    dof ry
    limits (-180.0 0.0)
 end
  begin
     id 21 
     name lhand
     direction 1 -4.48967e-011 2.08017e-027   
     length 0.629969   
     axis -1.32723e-015 90 90   XYZ
    dof rx rz
    limits (-90.0 90.0)
           (-45.0 45.0)
  end
  begin
     id 22 
     name lfingers
     direction 1 -4.49089e-011 4.20095e-027   
     length 0.507897   
     axis -2.6545e-015 90 90   XYZ
    dof rx
    limits (0.0 90.0)
  end
  begin
     id 23
     name lthumb
     direction 0.707107 -6.35001e-011 0.707107   
     length 0.729241   
     axis -90 45 5.05613e-014   XYZ
    dof rx rz
    limits (-45.0 45.0)
           (-45.0 45.0)
  end
  begin
     id 24 
     name rclavicle
     direction -0.881882 0.464123 -0.0829113   
     length 3.47515  
     axis 0 0 0   XYZ 
    dof ry rz
    limits (-10.0 20.0)
           (-20.0 0.0)
  end
  begin
     id 25 
     name rhumerus
     direction -1 -4.48961e-011 -1.55672e-027  
     length 5.232   
     axis 180 30 90   XYZ
    dof rx ry rz
    limits (-90.0 60.0)
           (-90.0 90.0)
           (-90.0 90.0)
  end
  begin
     id 26 
     name rradius
     direction -1 -4.48963e-011 6.18178e-029   
     length 3.65641   
     axis 180 30 90   XYZ
    dof rx
    limits (-10.0 170.0)
  end
  begin
     id 27 
     name rwrist
     direction -1 -4.48982e-011 1.04136e-027   
     length 1.8282   
     axis -2.56395e-016 -90 -90   XYZ
    dof ry
    limits (-180.0 0.0)
  end
  begin
     id 28
     name rhand
     direction -1 -4.48929e-011 2.07378e-027   
     length 0.656807   
     axis -1.32723e-015 -90 -90   XYZ
    dof rx rz
    limits (-90.0 90.0)
           (-45.0 45.0)
  end
  begin
     id 29
     name rfingers
     direction -1 -4.489e-011 4.13816e-027   
     length 0.529535   
     axis -2.6545e-015 -90 -90   XYZ
    dof rx
    limits (0.0 90.0)
  end
  begin
     id 30
     name rthumb
     direction -0.707107 -6.34843e-011 0.707107   
     length 0.760309   
     axis -90 -45 -5.05613e-014   XYZ
    dof rx rz
    limits (-45.0 45.0)
           (-45.0 45.0)
  end
:hierarchy
  begin
    root lhipjoint rhipjoint lowerback
    lhipjoint lfemur
    lfemur ltibia
    ltibia lfoot
    lfoot ltoes
    rhipjoint rfemur
    rfemur rtibia
    rtibia rfoot
    rfoot rtoes
    lowerback upperback
    upperback thorax
    thorax lowerneck lclavicle rclavicle
    lowerneck upperneck
    upperneck head
    lclavicle lhumerus
    lhumerus lradius
    lradius lwrist
    lwrist lhand lthumb
    lhand lfingers
    rclavicle rhumerus
    rhumerus rradius
    rradius rwrist
    rwrist rhand rthumb
    rhand rfingers
  end

#!OML:ASF H:\ManfredETheater\Project 1\Capture day 1\Session 1\subject.ASF
:FULLY-SPECIFIED
:DEGREES
46
root 12.8434 15.7556 -20.2528 12.3941 2.82889 10.9117
lowerback 19.2326 -1.69075 -3.5306
upperback 1.73311 -3.08026 -1.26954
thorax -8.78031 -1.35822 1.43677
lowerneck -10.4953 -10.2657 -11.8378
upperneck -0.28119 -12.7183 11.5686
head 3.10771 -6.03518 4.52915
rclavicle -1.43125e-014 -1.74931e-014
rhumerus -51.7643 -2.63636 -85.2292
rradius 54.706
rwrist -22.45
rhand -27.8258 5.44049
rfingers 7.12502
rthumb -1.21766 -24.5358
lclavicle -1.43125e-014 -1.74931e-014
lhumerus -40.6149 -2.4149 95.1193
lradius 94.1785
lwrist 17.2311
lhand -23.2536 -10.6799
lfingers 7.12502
lthumb 3.19816 19.2758
rfemur -51.6288 -11.1284 36.5638
rtibia 58.4949
rfoot -21.1347 -25.3155
rtoes 12.209
lfemur -14.926 -1.37594 -8.66412
ltibia 86.703
lfoot -0.129819 -10.4511
ltoes -9.18543
47
root 12.7519 15.7452 -19.7677 12.34 2.86076 10.4009
lowerback 19.2224 -1.7431 -3.31125
upperback 1.74157 -3.08371 -1.07953
thorax -8.76546 -1.36483 1.51887
lowerneck -10.3759 -10.2775 -11.7371
upperneck -0.440408 -12.7413 11.4263
head 3.02625 -6.05605 4.47819
rclavicle 4.37326e-015 1.74931e-014
rhumerus -49.7378 -1.70714 -85.9162
rradius 55.9409
rwrist -21.0486
rhand -27.9233 5.78865
rfingers 7.12502
rthumb -1.3118 -24.1871
lclavicle 4.37326e-015 1.74931e-014
lhumerus -41.6961 -1.31239 94.42
lradius 91.606
lwrist 16.5668
lhand -23.5497 -11.0447
lfingers 7.12502
lthumb 2.91227 18.9151
rfemur -49.6861 -11.2378 37.2075
rtibia 58.8687
rfoot -23.1496 -26.0572
rtoes 10.5546
lfemur -18.5539 -0.783445 -7.472
ltibia 89.1232
lfoot -1.46149 -9.70061
ltoes -9.20615
48
root 12.657 15.7416 -19.2841 12.4074 2.95574 10.0692
lowerback 19.0931 -1.80755 -3.25484
upperback 1.70896 -3.13676 -0.915209
thorax -8.72088 -1.39013 1.67399
lowerneck -10.3106 -10.311 -11.641
upperneck -0.499362 -12.7926 11.2626
head 2.98509 -6.0889 4.41403
rclavicle -2.42517e-014 7.15625e-015
rhumerus -48.0629 -0.611213 -86.603
rradius 57.9837
rwrist -19.7876
rhand -27.8013 6.23917
rfingers 7.12502
rthumb -1.19403 -23.7372
lclavicle -2.42517e-014 7.15625e-015
lhumerus -42.9743 -0.576739 93.8356
lradius 89.6366
lwrist 15.6954
lhand -23.7599 -11.3827
lfingers 7.12502
lthumb 2.70927 18.5799
rfemur -47.755 -11.5346 37.7112
rtibia 58.9643
rfoot -25.0223 -26.6172
rtoes 8.90243
lfemur -22.3859 -0.275227 -6.63772
ltibia 91.106
lfoot -2.73566 -8.81633
ltoes -9.27282
49
root 12.5592 15.7439 -18.8003 12.5533 3.0787 9.82304
lowerback 18.8747 -1.86673 -3.25822
upperback 1.64563 -3.19526 -0.770743
thorax -8.65841 -1.41662 1.83933
lowerneck -10.2723 -10.3829 -11.5704
upperneck -0.485602 -12.8958 11.1271
head 2.97927 -6.14509 4.35406
rclavicle -1.74931e-014 1.59028e-014
rhumerus -46.7582 0.593931 -87.2774
rradius 60.8148
rwrist -18.8768
rhand -27.4705 6.73729
rfingers 7.12502
rthumb -0.874555 -23.2407
lclavicle -1.74931e-014 1.59028e-014
lhumerus -44.4524 -0.27111 93.4024
lradius 88.366
lwrist 14.7669
lhand -23.8204 -11.6713
lfingers 7.12502
lthumb 2.65078 18.292
rfemur -45.7792 -11.9279 38.1292
rtibia 58.8072
rfoot -26.7022 -27.0219
rtoes 7.10779
lfemur -26.3013 0.179368 -6.06554
ltibia 92.6176
lfoot -3.97004 -7.85568
ltoes -9.42381
50
root 12.4603 15.7508 -18.3162 12.728 3.17206 9.54039
lowerback 18.6204 -1.90046 -3.19607
upperback 1.56291 -3.20724 -0.634005
thorax -8.60348 -1.42331 1.94598
lowerneck -10.2562 -10.5047 -11.5422
upperneck -0.421117 -13.0654 11.0605
head 3.00719 -6.2311 4.31208
rclavicle 1.07344e-014 -2.38542e-015
rhumerus -45.8095 1.86163 -87.9252
rradius 64.3604
rwrist -18.4141
rhand -26.9587 7.23481
rfingers 7.12502
rthumb -0.380227 -22.7446
lclavicle 1.07344e-014 -2.38542e-015
lhumerus -46.1154 -0.39994 93.1465
lradius 87.8259
lwrist 13.9684
lhand -23.7047 -11.9335
lfingers 7.12502
lthumb 2.76258 18.0283
rfemur -43.6978 -12.3 38.5427
rtibia 58.4266
rfoot -28.1556 -27.2879
rtoes 5.1317
lfemur -30.1821 0.636021 -5.62513
ltibia 93.6492
lfoot -5.17129 -6.89123
ltoes -9.67695
51
root 12.3613 15.762 -17.8304 12.9051 3.19337 9.20105
lowerback 18.3353 -1.8949 -3.03219
upperback 1.48306 -3.1488 -0.523486
thorax -8.53889 -1.40099 1.94766
lowerneck -10.2516 -10.6785 -11.5518
upperneck -0.3447 -13.3051 11.0905
head 3.05802 -6.34857 4.29637
rclavicle -3.73715e-014 7.15625e-015
rhumerus -45.1515 3.13318 -88.5396
rradius 68.4858
rwrist -18.3565
rhand -26.3167 7.7106
rfingers 7.12502
rthumb 0.239906 -22.269
lclavicle -3.73715e-014 7.15625e-015
lhumerus -47.9195 -0.928731 93.0628
lradius 87.9825
lwrist 13.4373
lhand -23.4114 -12.1663
lfingers 7.12502
lthumb 3.04584 17.7917
rfemur -41.4851 -12.5697 38.9379
rtibia 57.856
rfoot -29.3323 -27.4457
rtoes 2.87645
lfemur -33.9363 1.10412 -5.29859
ltibia 94.1931
lfoot -6.34873 -5.95727
ltoes -10.0972
52
root 12.263 15.7759 -17.3431 13.0851 3.12702 8.83663
lowerback 18.0382 -1.84338 -2.80188
upperback 1.40184 -3.02095 -0.451076
thorax -8.47783 -1.34854 1.85342
lowerneck -10.2468 -10.9009 -11.6011
upperneck -0.273151 -13.6106 11.2217
head 3.12543 -6.49568 4.30951
rclavicle -9.54166e-015 1.59028e-014
rhumerus -44.7307 4.38082 -89.1033
rradius 73.032
rwrist -18.5303
rhand -25.6177 8.14828
rfingers 7.12502
rthumb 0.914999 -21.8295
lclavicle -9.54166e-015 1.59028e-014
lhumerus -49.8421 -1.76177 93.1344
lradius 88.758
lwrist 13.2614
lhand -22.976 -12.356
lfingers 7.12502
lthumb 3.46629 17.5955
rfemur -39.165 -12.6896 39.2716
rtibia 57.1376
rfoot -30.1962 -27.5125
rtoes 0.331698
lfemur -37.5369 1.55425 -5.11342
ltibia 94.2579
lfoot -7.47205 -5.09556
ltoes -10.5936
53
root 12.165 15.7935 -16.8528 13.2708 2.95889 8.47613
lowerback 17.7203 -1.74352 -2.53893
upperback 1.3216 -2.82825 -0.427111
thorax -8.4102 -1.26727 1.6727
lowerneck -10.2109 -11.1574 -11.6938
upperneck -0.232482 -13.9645 11.459
head 3.19634 -6.66476 4.35698
rclavicle 1.51076e-014 1.66979e-014
rhumerus -44.4922 5.58236 -89.6036
rradius 77.8428
rwrist -18.7073
rhand -24.9018 8.56852
rfingers 7.12502
rthumb 1.60637 -21.4052
lclavicle 1.51076e-014 1.66979e-014
lhumerus -51.8347 -2.78338 93.3229
lradius 90.0064
lwrist 13.4466
lhand -22.4143 -12.5095
lfingers 7.12502
lthumb 4.00873 17.4326
rfemur -36.756 -12.6257 39.5134
rtibia 56.3
rfoot -30.703 -27.5194
rtoes -2.54291
lfemur -40.9475 1.96345 -5.08023
ltibia 93.8417
lfoot -8.55334 -4.32051
ltoes -11.235
54
root 12.0668 15.8162 -16.3583 13.4572 2.70022 8.13829
lowerback 17.3793 -1.60332 -2.25571
upperback 1.25031 -2.58402 -0.456636
thorax -8.32335 -1.16333 1.41089
lowerneck -10.145 -11.4354 -11.8141
upperneck -0.225267 -14.3504 11.7795
head 3.2664 -6.84848 4.43104
rclavicle 2.98177e-015 3.18055e-015
rhumerus -44.3665 6.71047 -90.0304
rradius 82.77
rwrist -18.6735
rhand -24.1928 9.01747
rfingers 7.12502
rthumb 2.29111 -20.95
lclavicle 2.98177e-015 3.18055e-015
lhumerus -53.8427 -3.87754 93.5764
lradius 91.5751
lwrist 13.9078
lhand -21.7823 -12.5827
lfingers 7.12502
lthumb 4.61903 17.347
rfemur -34.2708 -12.3877 39.6543
rtibia 55.3524
rfoot -30.8204 -27.462
rtoes -5.65649
lfemur -44.1387 2.29897 -5.18926
ltibia 92.9353
lfoot -9.54691 -3.67502
ltoes -11.9752
55
root 11.967 15.847 -15.8586 13.6549 2.37795 7.82616
lowerback 17.0051 -1.43587 -1.95449
upperback 1.18113 -2.30516 -0.530012
thorax -8.21623 -1.04426 1.08449
lowerneck -10.0385 -11.721 -11.9566
upperneck -0.245242 -14.7504 12.1533
head 3.33162 -7.03919 4.52415
rclavicle -2.38542e-014 -1.90833e-014
rhumerus -44.3271 7.75194 -90.3785
rradius 87.7097
rwrist -18.2944
rhand -23.5 9.46758
rfingers 7.12502
rthumb 2.96028 -20.4916
lclavicle -2.38542e-014 -1.90833e-014
lhumerus -55.8234 -4.93502 93.8501
lradius 93.3047
lwrist 14.4841
lhand -21.1371 -12.5808
lfingers 7.12502
lthumb 5.24193 17.3344
rfemur -31.7317 -12.0002 39.7151
rtibia 54.2735
rfoot -30.4914 -27.3352
rtoes -8.94098
lfemur -47.0883 2.5296 -5.39968
ltibia 91.5135
lfoot -10.4295 -3.19665
ltoes -12.7364
